# AST/ASF file generated using VICON BodyLanguage
# -----------------------------------------------
:version 1.10
:name VICON
:units
  mass 1.0
  length 0.45
  angle deg
:documentation
   .ast/.asf automatically generated from VICON data using
   VICON BodyBuilder and BodyLanguage model FoxedUp or BRILLIANT.MOD
:root
   order TX TY TZ RX RY RZ
   axis XYZ
   position 0 0 0  
   orientation 0 0 0 
:bonedata
  begin
     id 1 
     name lhipjoint
     direction 0.650112 -0.723553 0.232005 
     length 2.45805 
     axis 0 0 0  XYZ
  end
  begin
     id 2 
     name lfemur
     direction 0.34202 -0.939693 0  
     length 7.00073  
     axis 0 0 20  XYZ
    dof rx ry rz
    limits (-160.0 20.0)
           (-70.0 70.0)
           (-60.0 70.0)
  end
  begin
     id 3 
     name ltibia
     direction 0.34202 -0.939693 0   
     length 7.8748   
     axis 0 0 20   XYZ
    dof rx
    limits (-10.0 170.0)
  end
  begin
     id 4 
     name lfoot
     direction 0.0542825 -0.14914 0.987325   
     length 1.75978   
     axis -90 7.62852e-016 20   XYZ
    dof rx rz
    limits (-45.0 90.0)
           (-70.0 20.0)
  end
  begin
     id 5 
     name ltoes
     direction 1.53509e-011 -4.21906e-011 1   
     length 0.893912   
     axis -90 7.62852e-016 20   XYZ
    dof rx
    limits (-90.0 20.0)
  end
  begin
     id 6 
     name rhipjoint
     direction -0.637897 -0.733345 0.235145   
     length 2.42522  
     axis 0 0 0  XYZ 
  end
  begin
     id 7 
     name rfemur
     direction -0.34202 -0.939693 0   
     length 7.02549   
     axis 0 0 -20   XYZ
    dof rx ry rz
    limits (-160.0 20.0)
           (-70.0 70.0)
           (-70.0 60.0)
  end
  begin
     id 8 
     name rtibia
     direction -0.34202 -0.939693 0   
     length 7.71512   
     axis 0 0 -20   XYZ
    dof rx
    limits (-10.0 170.0)
 end
 begin
     id 9 
     name rfoot
     direction -0.0822618 -0.226012 0.970645   
     length 1.90014  
     axis -90 -7.62852e-016 -20   XYZ
    dof rx rz
    limits (-45.0 90.0)
           (-20.0 70.0)
  end
  begin
     id 10 
     name rtoes
     direction -1.53542e-011 -4.21872e-011 1   
     length 0.957341   
     axis -90 -7.62852e-016 -20   XYZ
    dof rx
    limits (-90.0 20.0)
  end
  begin
     id 11 
     name lowerback
     direction -0.0022947 0.999774 -0.0211557   
     length 1.89909   
     axis 0 0 0   XYZ
    dof rx ry rz
    limits (-20.0 45.0)
           (-30.0 30.0)
           (-30.0 30.0)
  end
  begin
     id 12 
     name upperback
     direction 0.0107737 0.998635 0.0511027   
     length 1.8853   
     axis 0 0 0   XYZ
    dof rx ry rz
    limits (-20.0 45.0)
           (-30.0 30.0)
           (-30.0 30.0)
  end
  begin
     id 13 
     name thorax
     direction 0.011824 0.998136 0.0598754   
     length 1.88911   
     axis 0 0 0   XYZ
    dof rx ry rz
    limits (-20.0 45.0)
           (-30.0 30.0)
           (-30.0 30.0)
  end
  begin
     id 14 
     name lowerneck
     direction -0.0685355 0.990319 0.120714   
     length 1.91222   
     axis 0 0 0   XYZ
    dof rx ry rz
    limits (-20.0 45.0)
           (-30.0 30.0)
           (-30.0 30.0)
  end
  begin
     id 15 
     name upperneck
     direction 0.0886204 0.955665 -0.280805   
     length 1.92526   
     axis 0 0 0   XYZ
    dof rx ry rz
    limits (-20.0 45.0)
           (-30.0 30.0)
           (-30.0 30.0)
  end
  begin
     id 16
     name head
     direction 0.0233423 0.993502 -0.111393  
     length 1.96056  
     axis 0 0 0   XYZ
    dof rx ry rz
    limits (-20.0 45.0)
           (-30.0 30.0)
           (-30.0 30.0)
  end
  begin
     id 17 
     name lclavicle
     direction 0.941873 0.32922 0.0670041  
     length 3.31705  
     axis 0 0 0   XYZ
    dof ry rz
    limits (-20.0 10.0)
           (0.0 20.0)
  end
  begin
     id 18 
     name lhumerus
     direction 1 -4.4898e-011 3.38707e-028   
     length 5.29277   
     axis 180 -30 -90   XYZ
    dof rx ry rz
    limits (-60.0 90.0)
           (-90.0 90.0)
           (-90.0 90.0)
  end
  begin
     id 19
     name lradius
     direction 1 -4.48952e-011 1.63213e-028   
     length 2.85226   
     axis 180 -30 -90   XYZ
    dof rx
    limits (-10.0 170.0)
  end
  begin
     id 20
     name lwrist
     direction 1 -4.49001e-011 1.27856e-027   
     length 1.42613   
     axis -1.61767e-015 90 90   XYZ
    dof ry
    limits (-180.0 0.0)
 end
  begin
     id 21 
     name lhand
     direction 1 -4.48976e-011 2.55931e-027   
     length 0.602097   
     axis -1.63363e-015 90 90   XYZ
    dof rx rz
    limits (-90.0 90.0)
           (-45.0 45.0)
  end
  begin
     id 22 
     name lfingers
     direction 1 -4.48986e-011 5.11684e-027   
     length 0.485426   
     axis -3.26723e-015 90 90   XYZ
    dof rx
    limits (0.0 90.0)
  end
  begin
     id 23
     name lthumb
     direction 0.707107 -6.34915e-011 0.707107   
     length 0.696978   
     axis -90 45 -2.25915e-014   XYZ
    dof rx rz
    limits (-45.0 45.0)
           (-45.0 45.0)
  end
  begin
     id 24 
     name rclavicle
     direction -0.939974 0.327078 0.0973096   
     length 3.10337  
     axis 0 0 0   XYZ 
    dof ry rz
    limits (-10.0 20.0)
           (-20.0 0.0)
  end
  begin
     id 25 
     name rhumerus
     direction -1 -4.48975e-011 1.83745e-027  
     length 5.13304   
     axis 180 30 90   XYZ
    dof rx ry rz
    limits (-90.0 60.0)
           (-90.0 90.0)
           (-90.0 90.0)
  end
  begin
     id 26 
     name rradius
     direction -1 -4.48977e-011 7.1775e-029   
     length 2.74305   
     axis 180 30 90   XYZ
    dof rx
    limits (-10.0 170.0)
  end
  begin
     id 27 
     name rwrist
     direction -1 -4.48977e-011 1.27963e-027   
     length 1.37152   
     axis -1.61767e-015 -90 -90   XYZ
    dof ry
    limits (-180.0 0.0)
  end
  begin
     id 28
     name rhand
     direction -1 -4.4888e-011 2.56782e-027   
     length 0.767976   
     axis -1.63363e-015 -90 -90   XYZ
    dof rx rz
    limits (-90.0 90.0)
           (-45.0 45.0)
  end
  begin
     id 29
     name rfingers
     direction -1 -4.48947e-011 5.12384e-027   
     length 0.619162   
     axis -3.26723e-015 -90 -90   XYZ
    dof rx
    limits (0.0 90.0)
  end
  begin
     id 30
     name rthumb
     direction -0.707107 -6.34857e-011 0.707107   
     length 0.888997   
     axis -90 -45 2.25915e-014   XYZ
    dof rx rz
    limits (-45.0 45.0)
           (-45.0 45.0)
  end
:hierarchy
  begin
    root lhipjoint rhipjoint lowerback
    lhipjoint lfemur
    lfemur ltibia
    ltibia lfoot
    lfoot ltoes
    rhipjoint rfemur
    rfemur rtibia
    rtibia rfoot
    rfoot rtoes
    lowerback upperback
    upperback thorax
    thorax lowerneck lclavicle rclavicle
    lowerneck upperneck
    upperneck head
    lclavicle lhumerus
    lhumerus lradius
    lradius lwrist
    lwrist lhand lthumb
    lhand lfingers
    rclavicle rhumerus
    rhumerus rradius
    rradius rwrist
    rwrist rhand rthumb
    rhand rfingers
  end

#!OML:ASF F:\VICON\USERDATA\INSTALL\rory3\rory3.ASF
:FULLY-SPECIFIED
:DEGREES
905
root -0.262802 16.3515 -2.28039 9.52126 4.57761 1.69905
lowerback 23.5034 -0.0616014 -1.46165
upperback 13.5443 -0.282068 0.406949
thorax 1.8079 -0.218663 1.3253
lowerneck -13.0482 2.79585 -11.1328
upperneck -0.967284 5.02848 20.5957
head 1.13396 3.15726 8.50757
rclavicle 2.18663e-015 -3.37934e-015
rhumerus 30.8184 37.7483 -46.3158
rradius 64.8366
rwrist 16.0517
rhand -8.42179 10.0016
rfingers 7.12502
rthumb 17.503 -19.2305
lclavicle 2.18663e-015 -3.37934e-015
lhumerus 50.2869 -38.3461 34.7676
lradius 47.8433
lwrist -4.35274
lhand 6.30294 23.8125
lfingers 7.12502
lthumb 31.6119 51.0955
rfemur -37.1669 -0.527169 17.0751
rtibia 49.7699
rfoot -22.1696 -5.70064
rtoes -17.9828
lfemur -38.1382 -2.55211 -17.4127
ltibia 47.2268
lfoot -17.6687 -3.88284
ltoes -20.2567
906
root -0.260267 16.3727 -2.27328 9.64409 4.57311 1.75868
lowerback 23.4813 -0.0892933 -1.51619
upperback 13.5073 -0.328848 0.318265
thorax 1.77831 -0.240773 1.27079
lowerneck -13.061 2.81692 -11.0192
upperneck -1.11723 5.06539 20.4347
head 1.09222 3.16788 8.43177
rclavicle -1.39149e-015 9.54166e-015
rhumerus 31.2107 37.9315 -45.7477
rradius 64.8245
rwrist 15.842
rhand -8.48836 9.95159
rfingers 7.12502
rthumb 17.4389 -19.2862
lclavicle -1.39149e-015 9.54166e-015
lhumerus 50.3569 -38.1948 34.5566
lradius 47.7979
lwrist -4.5559
lhand 6.60862 24.0115
lfingers 7.12502
lthumb 31.9031 51.2368
rfemur -37.0779 -0.464479 16.9826
rtibia 49.4297
rfoot -22.0541 -5.68724
rtoes -17.6079
lfemur -38.0172 -2.54219 -17.4962
ltibia 46.8576
lfoot -17.4847 -3.81797
ltoes -20.5277
907
root -0.257947 16.3932 -2.26836 9.78718 4.55205 1.78845
lowerback 23.4324 -0.104206 -1.5406
upperback 13.4698 -0.353278 0.256508
thorax 1.76006 -0.251388 1.22325
lowerneck -13.1427 2.79281 -11.0484
upperneck -1.20319 5.05605 20.3642
head 1.08295 3.16364 8.41461
rclavicle -3.08116e-015 -4.96962e-016
rhumerus 31.5965 38.0084 -45.2333
rradius 64.7696
rwrist 15.7105
rhand -8.51415 9.8622
rfingers 7.12502
rthumb 17.4141 -19.3778
lclavicle -3.08116e-015 -4.96962e-016
lhumerus 50.3618 -37.9825 34.5433
lradius 47.7357
lwrist -4.83818
lhand 7.19436 23.9863
lfingers 7.12502
lthumb 32.4607 51.0988
rfemur -37.0251 -0.328717 16.9169
rtibia 49.0928
rfoot -21.8679 -5.78173
rtoes -17.7353
lfemur -37.9248 -2.51956 -17.5475
ltibia 46.4874
lfoot -17.3561 -3.80401
ltoes -20.368
908
root -0.256295 16.4115 -2.26335 9.91073 4.56549 1.74744
lowerback 23.3935 -0.118797 -1.52422
upperback 13.4254 -0.3688 0.257993
thorax 1.72915 -0.257876 1.21873
lowerneck -13.2135 2.74687 -11.1464
upperneck -1.25799 5.0212 20.3105
head 1.08292 3.14757 8.41488
rclavicle 2.5842e-015 -4.87022e-015
rhumerus 31.9204 38.0855 -44.7275
rradius 64.7932
rwrist 15.5497
rhand -8.536 9.6863
rfingers 7.12502
rthumb 17.393 -19.5555
lclavicle 2.5842e-015 -4.87022e-015
lhumerus 50.3463 -37.7491 34.5631
lradius 47.7572
lwrist -5.01364
lhand 7.29405 23.8737
lfingers 7.12502
lthumb 32.5555 50.9667
rfemur -36.9428 -0.242714 16.9448
rtibia 48.7386
rfoot -21.6808 -5.86681
rtoes -17.6767
lfemur -37.8501 -2.53959 -17.4945
ltibia 46.119
lfoot -17.2415 -3.87369
ltoes -19.9545
909
root -0.255243 16.4287 -2.25743 10.038 4.59011 1.76381
lowerback 23.4014 -0.111378 -1.4769
upperback 13.3739 -0.351524 0.215824
thorax 1.66583 -0.243655 1.14329
lowerneck -13.2668 2.66165 -11.2101
upperneck -1.36195 4.93286 20.2713
head 1.07577 3.10307 8.41147
rclavicle -4.96962e-016 -1.59028e-015
rhumerus 32.1239 38.0443 -44.2754
rradius 64.7979
rwrist 15.4062
rhand -8.58562 9.57253
rfingers 7.12502
rthumb 17.3453 -19.6735
lclavicle -4.96962e-016 -1.59028e-015
lhumerus 50.5965 -37.5821 34.2553
lradius 47.8373
lwrist -4.9223
lhand 7.217 23.841
lfingers 7.12502
lthumb 32.4822 50.9491
rfemur -36.9004 -0.21781 16.9143
rtibia 48.3905
rfoot -21.486 -5.89835
rtoes -18.1163
lfemur -37.7844 -2.57638 -17.5049
ltibia 45.7543
lfoot -17.0933 -3.86183
ltoes -20.1804
910
root -0.253841 16.4456 -2.25304 10.2122 4.62733 1.71765
lowerback 23.3558 -0.138333 -1.34018
upperback 13.3 -0.361144 0.172549
thorax 1.60278 -0.237856 1.0214
lowerneck -13.2199 2.58346 -11.3359
upperneck -1.51486 4.86316 20.3193
head 1.03256 3.06381 8.44481
rclavicle -2.88238e-015 1.39149e-015
rhumerus 32.3803 37.987 -43.792
rradius 64.8176
rwrist 15.1255
rhand -8.5347 9.62889
rfingers 7.12502
rthumb 17.3943 -19.6128
lclavicle -2.88238e-015 1.39149e-015
lhumerus 50.8251 -37.3603 33.9726
lradius 47.8852
lwrist -4.84551
lhand 7.26898 23.9739
lfingers 7.12502
lthumb 32.5317 51.0718
rfemur -36.9172 -0.145438 16.9405
rtibia 48.0507
rfoot -21.2987 -5.91531
rtoes -18.1472
lfemur -37.7809 -2.61783 -17.433
ltibia 45.4055
lfoot -16.8601 -3.93144
ltoes -19.6991
911
root -0.251778 16.4612 -2.24796 10.3185 4.63847 1.69988
lowerback 23.3507 -0.161156 -1.20941
upperback 13.1854 -0.368454 0.0942824
thorax 1.47452 -0.229436 0.865316
lowerneck -13.1028 2.51608 -11.4729
upperneck -1.62604 4.79771 20.4775
head 0.987725 3.02682 8.516
rclavicle -3.47873e-015 -6.75868e-015
rhumerus 32.5085 37.9915 -43.4935
rradius 64.8133
rwrist 14.9239
rhand -8.56465 9.53971
rfingers 7.12502
rthumb 17.3655 -19.7045
lclavicle -3.47873e-015 -6.75868e-015
lhumerus 50.9208 -37.2134 33.8567
lradius 47.8421
lwrist -4.87922
lhand 7.23911 23.9805
lfingers 7.12502
lthumb 32.5033 51.0842
rfemur -36.8496 -0.109827 16.9465
rtibia 47.7655
rfoot -21.1838 -5.92158
rtoes -17.8721
lfemur -37.6892 -2.64946 -17.4077
ltibia 45.0771
lfoot -16.774 -3.92092
ltoes -19.5922
912
root -0.251046 16.4781 -2.24474 10.4032 4.60565 1.78239
lowerback 23.3886 -0.134502 -1.21146
upperback 13.0984 -0.337936 0.0110755
thorax 1.3574 -0.20967 0.771326
lowerneck -13.0291 2.4607 -11.5237
upperneck -1.77057 4.74469 20.5047
head 0.942041 2.99386 8.5288
rclavicle -5.46658e-015 7.15625e-015
rhumerus 32.6929 37.8985 -43.1658
rradius 64.7853
rwrist 14.7168
rhand -8.55307 9.45347
rfingers 7.12502
rthumb 17.3766 -19.7898
lclavicle -5.46658e-015 7.15625e-015
lhumerus 51.0875 -36.9702 33.8086
lradius 47.7949
lwrist -4.9465
lhand 7.13347 24.0992
lfingers 7.12502
lthumb 32.4027 51.2235
rfemur -36.7882 -0.0348321 16.8367
rtibia 47.5236
rfoot -21.0955 -5.93431
rtoes -17.5176
lfemur -37.5753 -2.64365 -17.5032
ltibia 44.7798
lfoot -16.6756 -3.92038
ltoes -19.2085
913
root -0.251735 16.4897 -2.24279 10.4968 4.53142 1.92626
lowerback 23.4539 -0.07987 -1.38702
upperback 13.0326 -0.304092 -0.0250175
thorax 1.2534 -0.199976 0.825482
lowerneck -13.1085 2.43951 -11.5798
upperneck -1.80884 4.73625 20.4016
head 0.945263 2.99087 8.50584
rclavicle -6.26172e-015 -4.37326e-015
rhumerus 33.074 37.8375 -42.6063
rradius 64.7811
rwrist 14.4621
rhand -8.63588 9.28437
rfingers 7.12502
rthumb 17.2969 -19.9659
lclavicle -6.26172e-015 -4.37326e-015
lhumerus 51.2359 -36.6059 33.8051
lradius 47.7623
lwrist -4.89663
lhand 7.01898 24.133
lfingers 7.12502
lthumb 32.2938 51.2795
rfemur -36.7562 0.0625141 16.6593
rtibia 47.3229
rfoot -20.9552 -6.00876
rtoes -17.8349
lfemur -37.4968 -2.60807 -17.6714
ltibia 44.534
lfoot -16.5769 -3.85409
ltoes -19.0823
914
root -0.251325 16.4998 -2.23969 10.6008 4.50391 1.96064
lowerback 23.467 -0.059896 -1.48121
upperback 12.9946 -0.297173 -0.016011
thorax 1.20562 -0.201606 0.887262
lowerneck -13.2472 2.44582 -11.5683
upperneck -1.82498 4.75724 20.2244
head 0.961836 3.00398 8.44864
rclavicle 1.07344e-014 -6.26172e-015
rhumerus 33.5463 37.7213 -42.0037
rradius 64.753
rwrist 14.3508
rhand -8.54997 9.20361
rfingers 7.12502
rthumb 17.3796 -20.0394
lclavicle 1.07344e-014 -6.26172e-015
lhumerus 51.3818 -36.1313 33.838
lradius 47.6715
lwrist -4.83806
lhand 6.94145 24.0976
lfingers 7.12502
lthumb 32.22 51.2592
rfemur -36.7373 0.121856 16.6087
rtibia 47.1259
rfoot -20.8865 -6.0484
rtoes -18.1454
lfemur -37.483 -2.59052 -17.7072
ltibia 44.3353
lfoot -16.519 -3.83986
ltoes -18.8621
915
root -0.250805 16.5089 -2.23585 10.711 4.5342 1.79193
lowerback 23.3924 -0.0986598 -1.3536
upperback 12.9536 -0.32157 0.0184171
thorax 1.19497 -0.208462 0.856839
lowerneck -13.2974 2.46321 -11.5369
upperneck -1.85817 4.78587 20.0438
head 0.958204 3.01556 8.38376
rclavicle 8.94531e-015 -3.8763e-015
rhumerus 33.9544 37.6051 -41.5719
rradius 64.6962
rwrist 14.294
rhand -8.5177 9.32001
rfingers 7.12502
rthumb 17.4106 -19.9202
lclavicle 8.94531e-015 -3.8763e-015
lhumerus 51.4773 -35.6539 33.8503
lradius 47.5701
lwrist -4.72585
lhand 6.8462 24.1683
lfingers 7.12502
lthumb 32.1293 51.3482
rfemur -36.7765 0.203892 16.7819
rtibia 46.9322
rfoot -20.8016 -6.09121
rtoes -18.1113
lfemur -37.5375 -2.53312 -17.5226
ltibia 44.1863
lfoot -16.4315 -3.85888
ltoes -19.1679
916
root -0.25049 16.5165 -2.23415 10.7764 4.57419 1.66586
lowerback 23.4297 -0.124218 -1.17368
upperback 12.8789 -0.321494 0.019344
thorax 1.0916 -0.198038 0.756285
lowerneck -13.2595 2.4221 -11.6717
upperneck -1.93106 4.75742 20.0584
head 0.932484 2.99892 8.40985
rclavicle -5.06901e-015 -2.78299e-015
rhumerus 34.1199 37.4447 -41.349
rradius 64.6387
rwrist 14.2455
rhand -8.45989 9.35584
rfingers 7.12502
rthumb 17.4663 -19.8795
lclavicle -5.06901e-015 -2.78299e-015
lhumerus 51.6705 -35.2954 33.8003
lradius 47.4869
lwrist -4.60875
lhand 6.77676 24.3112
lfingers 7.12502
lthumb 32.0632 51.5045
rfemur -36.7816 0.249367 16.9139
rtibia 46.7572
rfoot -20.7004 -6.13814
rtoes -18.1562
lfemur -37.5569 -2.53691 -17.3702
ltibia 44.0516
lfoot -16.3054 -3.92803
ltoes -18.6367
917
root -0.249928 16.5242 -2.2324 10.8225 4.55132 1.69581
lowerback 23.4698 -0.126901 -1.20506
upperback 12.8122 -0.332565 0.00878115
thorax 0.998389 -0.204089 0.765622
lowerneck -13.254 2.41237 -11.8709
upperneck -1.95757 4.77806 20.0956
head 0.915184 3.01046 8.45788
rclavicle 1.13307e-014 -3.97569e-016
rhumerus 34.3948 37.3535 -41.0425
rradius 64.592
rwrist 14.3058
rhand -8.49103 9.29663
rfingers 7.12502
rthumb 17.4363 -19.9413
lclavicle 1.13307e-014 -3.97569e-016
lhumerus 51.7587 -34.8539 33.871
lradius 47.4095
lwrist -4.62905
lhand 6.90808 24.1966
lfingers 7.12502
lthumb 32.1882 51.3646
rfemur -36.7314 0.236355 16.8835
rtibia 46.6351
rfoot -20.6335 -6.07197
rtoes -18.0203
lfemur -37.5197 -2.52196 -17.4143
ltibia 43.922
lfoot -16.2752 -3.89133
ltoes -18.8844
918
root -0.24896 16.5313 -2.23122 10.8479 4.51342 1.79507
lowerback 23.5126 -0.131975 -1.32808
upperback 12.7658 -0.363804 0.00592156
thorax 0.928153 -0.225348 0.839562
lowerneck -13.1835 2.42111 -12.0207
upperneck -2.05144 4.82081 20.0074
head 0.866539 3.02478 8.45196
rclavicle 1.16289e-014 -3.67752e-015
rhumerus 34.8761 37.2981 -40.5207
rradius 64.5219
rwrist 14.2714
rhand -8.49067 9.23986
rfingers 7.12502
rthumb 17.4367 -19.9981
lclavicle 1.16289e-014 -3.67752e-015
lhumerus 51.7492 -34.3167 34.1119
lradius 47.2648
lwrist -4.85083
lhand 7.05164 23.992
lfingers 7.12502
lthumb 32.3248 51.1323
rfemur -36.6828 0.260605 16.7616
rtibia 46.5699
rfoot -20.6193 -6.0674
rtoes -17.8401
lfemur -37.4523 -2.52755 -17.5329
ltibia 43.7947
lfoot -16.2628 -3.80638
ltoes -19.3107
919
root -0.248203 16.5345 -2.23045 10.8955 4.47506 1.90142
lowerback 23.6125 -0.14532 -1.32219
upperback 12.674 -0.384424 -0.0884345
thorax 0.777373 -0.230122 0.740555
lowerneck -13.0853 2.43252 -11.9299
upperneck -2.15601 4.82949 19.808
head 0.823264 3.01662 8.36382
rclavicle -1.10325e-014 4.42296e-015
rhumerus 35.1536 37.158 -40.2425
rradius 64.4584
rwrist 14.1753
rhand -8.54194 9.13502
rfingers 7.12502
rthumb 17.3873 -20.1073
lclavicle -1.10325e-014 4.42296e-015
lhumerus 51.7985 -33.8794 34.243
lradius 47.1926
lwrist -5.11829
lhand 7.22247 24.024
lfingers 7.12502
lthumb 32.4874 51.131
rfemur -36.7252 0.269933 16.6318
rtibia 46.5584
rfoot -20.6304 -6.03848
rtoes -17.9003
lfemur -37.4284 -2.53341 -17.6562
ltibia 43.6915
lfoot -16.2676 -3.74913
ltoes -19.4648
